<svg id="splitsvg" version="1.1" xmlns="http://www.w3.org/2000/svg" xmlns:xlink="http://www.w3.org/1999/xlink" width="1380" height="226"><g id="svgg"><path id="path0" d="M0.000 113.112 L 0.000 226.224 200.000 226.224 L 400.000 226.224 400.000 113.112 L 400.000 0.000 200.000 0.000 L 0.000 0.000 0.000 113.112 M78.231 28.562 C 78.763 29.095,78.989 32.648,78.989 40.501 C 78.989 53.900,77.077 52.449,94.726 52.449 L 108.464 52.449 111.894 50.639 C 119.434 46.661,125.867 46.658,137.924 50.626 L 143.463 52.449 194.670 52.449 C 241.933 52.449,246.032 52.365,247.899 51.360 C 251.329 49.512,270.768 49.346,274.459 51.133 C 277.088 52.406,278.022 52.462,293.902 52.301 L 310.585 52.133 310.900 40.576 C 311.282 26.622,310.054 27.826,323.915 27.814 C 336.221 27.803,336.719 27.990,336.445 32.535 C 336.186 36.818,336.779 37.283,342.506 37.283 C 348.736 37.283,348.273 35.722,348.045 55.924 L 347.867 71.722 342.814 71.909 C 336.724 72.135,336.692 72.163,336.229 77.546 L 335.861 81.833 324.173 82.005 C 309.740 82.219,310.900 83.264,310.900 70.056 L 310.900 60.100 302.212 59.908 C 287.053 59.573,286.592 59.738,290.521 64.102 C 294.932 69.002,296.131 70.497,298.680 74.273 C 301.866 78.994,306.565 88.849,308.010 93.839 C 308.614 95.924,309.342 98.377,309.628 99.289 C 311.145 104.128,302.909 120.646,294.002 130.629 C 289.005 136.230,286.404 138.015,280.885 139.632 C 262.777 144.937,261.698 145.331,261.234 146.827 C 261.003 147.573,259.694 151.095,258.325 154.653 C 255.740 161.374,254.781 162.770,246.647 171.656 C 244.055 174.487,240.951 177.900,239.748 179.239 C 237.666 181.559,235.781 185.054,231.280 194.945 C 224.519 209.799,224.809 209.407,219.905 210.338 C 217.994 210.701,213.728 211.593,210.427 212.321 C 207.125 213.048,203.570 213.792,202.528 213.973 C 201.485 214.155,198.872 214.748,196.722 215.292 C 193.146 216.195,192.403 216.191,188.035 215.239 C 185.408 214.667,181.054 213.755,178.359 213.213 C 175.665 212.671,171.754 211.848,169.668 211.385 C 167.583 210.921,164.597 210.342,163.033 210.097 C 158.621 209.406,158.994 210.082,155.018 195.577 C 154.160 192.449,153.091 188.448,152.642 186.687 C 151.477 182.113,151.157 181.661,144.647 175.355 C 133.810 164.859,132.604 163.485,129.106 157.652 C 122.694 146.956,119.689 142.923,118.067 142.835 C 117.838 142.822,113.431 140.950,108.273 138.674 C 97.757 134.035,97.285 133.648,89.779 123.539 C 87.198 120.063,84.770 116.935,84.382 116.588 C 83.995 116.240,82.694 114.573,81.491 112.884 L 79.305 109.812 79.305 101.510 L 79.305 93.207 84.183 86.256 C 86.866 82.433,90.966 76.461,93.295 72.986 C 95.624 69.510,98.334 65.630,99.318 64.364 C 102.850 59.815,102.882 59.827,87.842 60.027 C 78.307 60.154,79.011 59.271,78.999 71.122 C 78.986 83.087,80.071 82.148,66.262 82.148 C 53.636 82.148,54.210 82.380,53.719 77.093 L 53.397 73.618 48.192 73.434 C 41.426 73.196,41.755 74.119,41.813 55.547 C 41.870 37.068,41.629 37.793,47.661 37.969 C 53.546 38.141,53.712 38.012,53.712 33.264 C 53.712 31.040,54.043 28.990,54.471 28.562 C 55.538 27.496,77.164 27.496,78.231 28.562 M147.604 60.032 C 146.366 60.244,145.121 61.227,143.812 63.025 C 139.355 69.149,132.909 70.510,127.014 66.569 C 118.079 60.596,119.408 59.426,111.579 80.161 C 104.800 98.114,104.875 97.797,107.267 98.255 C 117.937 100.297,122.179 102.119,126.304 106.430 L 129.069 109.321 135.643 109.321 C 142.123 109.321,146.789 110.708,150.632 113.778 C 155.969 118.041,160.180 121.801,161.999 123.926 C 164.539 126.893,165.998 126.880,166.598 123.884 C 166.806 122.841,167.369 121.662,167.849 121.264 C 168.328 120.866,168.726 120.220,168.733 119.828 C 168.740 119.436,170.304 117.196,172.208 114.849 C 176.391 109.696,176.373 110.153,172.702 102.660 C 170.017 97.181,169.815 96.467,170.601 95.219 C 174.310 89.325,174.970 87.278,174.979 81.637 C 174.989 75.355,175.339 73.934,176.876 73.934 C 177.465 73.934,178.216 73.682,178.547 73.374 C 179.142 72.818,188.825 68.917,192.362 67.807 C 193.820 67.350,194.807 67.536,197.102 68.700 C 198.696 69.509,202.204 71.144,204.897 72.332 L 209.795 74.494 209.805 77.215 C 209.811 78.712,210.361 81.927,211.026 84.360 C 211.692 86.793,212.423 89.494,212.652 90.363 C 212.880 91.232,213.771 93.295,214.632 94.948 C 216.565 98.660,216.394 99.230,211.661 104.881 C 209.592 107.351,207.899 109.507,207.899 109.671 C 207.899 110.043,208.406 110.976,211.829 116.904 C 213.334 119.510,214.962 122.425,215.447 123.381 C 216.658 125.770,217.529 125.594,222.413 121.974 C 228.417 117.523,236.700 113.391,243.917 111.247 C 249.521 109.582,250.824 108.876,257.599 103.835 L 265.087 98.262 271.406 98.047 C 279.935 97.756,280.994 96.818,279.006 91.311 C 274.599 79.102,272.169 72.104,271.876 70.774 C 271.328 68.293,269.904 66.273,266.419 63.034 C 262.404 59.302,261.848 59.307,257.968 63.105 C 254.732 66.274,248.434 69.742,246.568 69.383 C 245.986 69.271,244.370 67.127,242.976 64.618 L 240.442 60.056 212.638 59.976 C 197.346 59.932,176.872 59.856,167.141 59.806 C 157.409 59.756,148.618 59.858,147.604 60.032  M -25 0 L -5 0 L -5 20 L -25 20 Z M 405 0 L 425 0 L 425 20 L 405 20 Z" stroke="none" fill="#000000" fill-rule="evenodd" transform="translate(30,0)"></path></g></svg>