<?xml version="1.0" encoding="utf-8"?>
<!-- Generator: Adobe Illustrator 25.0.1, SVG Export Plug-In . SVG Version: 6.00 Build 0)  -->
<svg version="1.1" id="Capa_1" xmlns="http://www.w3.org/2000/svg" xmlns:xlink="http://www.w3.org/1999/xlink" x="0px" y="0px"
	 viewBox="0 0 1366 768" style="enable-background:new 0 0 1366 768;" xml:space="preserve">
<style type="text/css">
	.st0{fill:#E9E600;}
</style>
<g>
	<path class="st0" d="M803.93,255.88c1.6,2.23,2.44,3.8,3.64,5c16.11,16.02,26.98,35.09,31.24,57.33
		c1.05,5.48-1.39,12.13-3.68,17.64c-6.4,15.37-15.72,28.93-28.59,39.66c-3.19,2.66-7.4,4.39-11.42,5.74
		c-9.46,3.17-19.13,5.72-28.62,8.84c-1.53,0.5-3.18,2.41-3.68,4.01c-4.48,14.34-10.77,27.55-22.34,37.64
		c-13.45,11.72-20.77,27.35-27.71,43.23c-2.06,4.72-3.96,9.55-6.51,14c-0.99,1.73-3.42,3.19-5.45,3.66
		c-14.25,3.31-28.55,6.36-42.87,9.37c-1.91,0.4-4.04,0.44-5.96,0.06c-15.15-3.06-30.26-6.37-45.42-9.37
		c-4.12-0.82-5.62-3.17-6.57-6.99c-2.86-11.43-5.82-22.85-9.36-34.08c-1.03-3.26-3.86-6.15-6.37-8.71
		c-4.88-4.98-9.97-9.77-15.24-14.35c-8.35-7.25-14.38-16.41-18.95-26.07c-5.32-11.25-14.09-16.98-24.93-21.12
		c-6.19-2.37-12.25-5.17-18.17-8.17c-2.11-1.07-3.9-3.08-5.4-5c-7.89-10.1-15.64-20.3-23.45-30.47c-0.3-0.4-0.93-0.76-0.93-1.14
		c0.06-9.96,0.18-19.93,0.29-29.89c10.41-15.22,20.84-30.42,31.18-45.69c0.86-1.27,1.07-2.97,1.58-4.47
		c-1.49-0.46-2.98-1.28-4.48-1.31c-8.5-0.15-17,0.03-25.5-0.2c-4.74-0.13-6.01,1.99-5.83,6.4c0.32,7.82,0.11,15.66,0.27,23.49
		c0.07,3.27-1.23,5.25-4.51,5.28c-10.16,0.08-20.32,0.05-30.47-0.05c-3.44-0.04-3.73-2.59-3.78-5.29c-0.15-8.67-0.39-8.94-9.13-8.79
		c-10.64,0.19-9.91,0.47-9.86-9.54c0.07-13,0.12-26-0.13-38.99c-0.08-4.45,1.59-6.16,5.85-5.72c0.33,0.03,0.67,0,1,0
		c11.62-0.05,11.47-0.06,12.4-11.78c0.12-1.52,2.67-4.01,4.17-4.07c9.82-0.38,19.65-0.25,29.48-0.21c3.13,0.01,4.9,1.43,4.87,4.91
		c-0.08,9.66,0.16,19.32-0.04,28.98c-0.07,3.33,1.24,4.62,4.29,4.62c13.83-0.02,27.66,0.1,41.48-0.23c2.62-0.06,5.31-1.73,7.77-3.03
		c6.8-3.58,13.68-5.78,21.5-3.56c8.1,2.3,16.3,4.23,24.48,6.24c1.6,0.39,3.29,0.55,4.94,0.55c52.16,0.02,104.33,0.03,156.49-0.09
		c2.7-0.01,5.39-1.22,8.09-1.87c1.61-0.39,3.22-1.09,4.84-1.11c10.65-0.15,21.94-2.45,31.82,0.28c19.2,5.32,38.32,1.2,57.37,2.83
		c4.23,0.36,5.44-1.76,5.34-5.74c-0.23-8.99-0.01-18-0.18-26.99c-0.08-4.08,1.65-5.77,5.64-5.73c9.33,0.08,18.66,0.11,27.99,0
		c4.21-0.05,5.54,1.89,5.31,5.88c-0.47,8.24,0.18,8.82,8.3,8.76c10.19-0.08,10.17-0.08,10.17,9.95c0,12.83-0.16,25.67,0.15,38.5
		c0.11,4.55-1.58,5.97-5.77,5.6c-2.32-0.21-4.67-0.01-6.99-0.15c-4.23-0.25-6.06,1.66-6.06,5.9c0.01,10-0.07,9.95-10.22,9.85
		c-7.16-0.07-14.33-0.01-21.49,0.06c-6.06,0.06-6.78-0.51-6.83-6.34c-0.06-7.5-0.2-15,0.05-22.49c0.15-4.44-1.26-6.44-5.94-6.34
		c-9.49,0.2-19,0.05-28.49,0.09C807.49,255.12,806.38,255.47,803.93,255.88z M778.07,316.74c3.49,0,5.66,0.06,7.83-0.01
		c6.49-0.2,8.82-3.85,6.6-9.89c-2.58-7.01-4.85-14.14-7.43-21.15c-3.86-10.48-5.96-21.88-16.45-28.72c-3.38-2.21-5.46-1.98-8.2,0.69
		c-3.41,3.31-6.93,6.67-10.91,9.21c-8.47,5.4-10.5,4.8-14.61-4.16c-2.56-5.58-5.92-7.88-12.5-7.83
		c-44.98,0.33-89.96,0.22-134.93,0.02c-5.19-0.02-8.25,1.73-10.74,6.18c-2.7,4.83-7.02,7.54-12.88,8.21
		c-8.48,0.97-13.98-4.52-20.21-8.43c-5.03-3.15-6.05-3.05-8.22,2.59c-5.95,15.52-11.83,31.06-17.69,46.6
		c-2.23,5.89-1.88,6.17,4.3,7.34c11.17,2.12,22.19,4.49,29.61,14.63c1.26,1.71,4.92,2.47,7.39,2.34c8.59-0.46,17.19-1,24.39,4.67
		c8.3,6.54,16.36,13.42,24.26,20.45c2.91,2.59,4.81,3.03,5.9-0.28c2.68-8.12,7.75-14.53,13.32-20.78c1.22-1.37,1.72-4.47,1.07-6.22
		c-1.85-4.95-4.28-9.73-6.86-14.36c-1.59-2.85-1.72-5.19,0.29-7.79c4.68-6.04,6.82-12.79,5.76-20.5c-0.29-2.12-0.47-4.5,0.2-6.44
		c0.67-1.92,2.13-4.19,3.86-5.02c6.12-2.94,12.4-5.64,18.84-7.8c3.07-1.03,6.96-1.64,9.89-0.67c6.26,2.07,12.25,5.09,18.11,8.18
		c1.67,0.88,3.46,3.31,3.55,5.11c0.51,10.31,3.42,19.88,8.03,28.97c2.02,3.98,1.46,7.31-1.36,10.53c-2.52,2.87-4.96,5.82-7.55,8.63
		c-2.21,2.39-2.62,4.36-0.55,7.41c3.62,5.34,6.64,11.11,9.7,16.81c2.78,5.17,3.68,5.54,8.54,1.92
		c10.57-7.88,21.43-15.53,34.39-18.59c10.8-2.55,19.51-8.08,27.69-15.04C765.92,318.97,771.59,314.86,778.07,316.74z"/>
</g>
</svg>
