<?xml version="1.0" encoding="utf-8"?>
<!DOCTYPE svg PUBLIC "-//W3C//DTD SVG 20010904//EN" "http://www.w3.org/TR/2001/REC-SVG-20010904/DTD/svg10.dtd">
<svg version="1.0" xmlns="http://www.w3.org/2000/svg" width="633px" height="358px" viewBox="0 0 633 358" preserveAspectRatio="xMidYMid meet">
 <g fill="none" stroke="#000000" stroke-width="1">
  <path d="M0.5 0.5L2.7 0.2L9 0.2L33.2 0.2L127.5 0.2L492.7 0.2L596.2 0.2L623 0.2L630 0.2L632.5 0.5L633 5.5L633 19.7L633 78.7L633 287.7L633 340L633 353.2L632.5 357.7L630 358.2L623.5 358.2L597.2 358.2L492.5 358.2L127.5 358.2L33.2 358.2L9 358.2L2.7 358.2L0.5 358L0 353.2L0 339L0 281L0 69.2L0 17.5L0 4.7L0.5 0.5M99.7 45.5C105.2 44.7 112.5 45 118 45.7C119.7 45.7 122.7 45.2 123.7 47C124.7 49 124.2 52 124.5 54.2C125 61 124.7 67.5 125 74.2C125.2 77.7 124 83 128.5 83.5C138.2 84.5 149 84.2 158.7 83.5C163 83.2 167.5 83.5 171.7 82.7C175.7 82.2 178.2 79.7 181.7 78.2C185.5 76.7 190.5 76.2 194.7 76.2C197.2 76.2 199.7 77 202.2 77.5C205.7 78 209.5 78 213 79C215.7 79.7 218.2 81.2 221 82C228 83.2 235.7 83 242.7 83.2C264.2 83.7 286 83.2 307.5 83.2C330 83.2 352.7 83.7 375.2 83.2C380.5 83 386 83.2 391.2 82.5C393.5 82.2 395.5 81.2 397.7 81C407.7 80 418.5 80 428.7 80.5C434 80.7 438.5 83.2 443.7 83.5C452.2 83.7 461 84 469.5 83.5C473.2 83.2 477 83.7 480.7 83.2C483.5 83 489.2 84.2 491.7 82.2C493.5 81 493 75 493 72.7C493 66.7 493.5 60.5 493.5 54.5C493.5 52.2 492.7 48.2 493.7 46.2C494 45.5 495 45.7 495.7 45.7L501.7 45.7C510 45.7 518.7 44.5 527 45.5C528 45.7 529.7 45.7 530.7 46.5C532 47.5 531.5 49.7 531.2 51.2C531 53.7 531 57.2 533.2 59C536 61 541.5 60.2 544.7 60.2C545.7 60.2 548.5 59.7 549.2 60.7C550 61.5 549.7 63.2 549.7 64.2L549.7 73C549.7 82.2 550 91.7 550 101L550 109C550 110 550.2 111.5 549.7 112.5C549.2 113.7 546.5 113.2 545.2 113.2C541.7 113.2 535.7 112.5 532.7 114.7C528.5 117.7 533.5 124.7 530.5 128.2C529.2 129.7 524.2 129.2 522.2 129.2L502.7 129.2C500.5 129.2 496.5 129.7 494.5 128.5C492.7 127.2 493.5 123.2 493.2 121.5C492.2 115.2 492.7 108.7 492.7 102.5C492.7 100.7 493.5 96.7 492.2 95.2C491.5 94.2 487.7 94.7 486.5 94.7C481 94.7 475.5 95 470 95C466.7 95 463.5 95 460.2 95C459 95 457.2 94.7 456.2 95.7C455 97 457 99.5 458 100.5C461.2 104.5 465 108.5 468 112.7C475.5 123 481.7 133.7 486 145.5C488.5 152.7 490 159.5 488 167C483.5 182.2 474.7 196.2 463.5 207.7C459.5 211.7 455.7 216 450.7 218.5C443 222.2 433.5 223.7 425.2 226.2C421.7 227.5 416.5 228.2 413.7 231C412 233 411.7 236.2 410.7 238.5C408.2 244.7 406.2 251.2 402.5 256.7C396 267 386 274.7 378.5 284.2C376 287.5 374 291.5 372 295.2C368 303.2 364.2 311.5 360.5 319.5C358.7 323 357.2 328 354.2 330.5C351 333 344.5 333.2 340.5 334C329.5 336.5 318.2 339.7 307 340.7C301.2 341.2 296.5 339.7 290.7 338.7C282.7 337.2 274.7 335.5 266.7 334C262.5 333 255.2 332.7 252 329.5C249.5 327 249.5 321.7 248.5 318.5C246.7 311.2 244.7 304 242.2 297C241.7 294.7 241.5 292.2 240.5 290C238.5 285.7 234 282.2 230.7 279C223.7 272 216.2 265.2 210 257.5C206.7 253.5 204.2 248.5 201.7 244C200.7 242.5 199.5 241.2 198.5 239.7C196.7 236.2 195 232 192 229.2C189.2 226.7 185.5 225.5 182.2 224C176.2 221.2 170.5 218.2 164.5 215.7C161.5 214.5 158 213.5 155.2 211.7C152.7 210 150.5 206.2 148.7 203.7C144.7 198.5 140.5 193.2 136.7 188C134.2 185 132 181.7 129.5 178.7C128.2 177 126.5 175.5 126 173.2C125.2 168 126 161.7 126 156.5C126 154 125.5 150.7 126.5 148.2C127.5 145 130.5 142 132.5 139C137 132 142 125 146.7 118C150.2 112.7 154 107.5 157.7 102.2C159 100.7 161.2 97.5 160.2 95.2C159.7 94.5 158.7 94.7 158 94.7L152.2 94.7C145.7 94.7 139.2 94.5 132.7 94.5C131 94.5 127 94.2 125.7 95.5C124.2 97.2 124.7 100.5 124.7 102.5L124.7 120C124.7 122 125.2 127 123.2 128.2C121.7 129.2 118.5 128.7 116.7 129C109.7 129.7 102.5 129 95.5 129C93.5 129 88.5 130 87 128.5C86.2 128 86.5 126.5 86.2 125.7C86 123.2 86.7 117.7 84.2 116.2C81.2 114.7 75.7 115 72.5 115C71.2 115 68.5 115.5 67.7 114.2C67 113.2 67.5 110 67.5 108.5L67.5 92.7L67.5 69.7C67.5 68.2 66.7 63 68 62C68.5 61.5 70.5 61.5 71.5 61.5C74.5 61.5 77.7 61 80.7 61C82 61 84 61.2 85 60.5C86 59.7 85.7 57.7 85.7 56.7C85.7 54.2 86.2 52 86.2 49.5C86.2 48.5 86.2 47 86.7 46.2C87.5 45.5 89.2 45.7 90.2 45.7C93.5 45.7 96.7 46 99.7 45.5M231.5 94.5C234.7 93.2 240.2 94.2 243.7 94.2L272.2 94.2L346.5 94.2L369.5 94.2C372.7 94.2 377 93.5 380.2 94.2C381.5 94.7 382 96.2 382.5 97.2L386.7 105.7C387.2 106.7 387.7 108.7 389 109C390.5 109.5 393 108.7 394.5 108.2C399.5 106.5 404.5 103.2 408 99.5C410.2 97.2 412.5 93.2 416.2 95.2C420.7 97.5 427 103.2 429.5 107.7C430.7 110.5 431.2 114 432.2 117C434.5 123.5 436.7 130.2 439.2 136.7C440.7 141 446 148.7 442.7 153C437 160.2 425 153.5 418 157.5C410.7 161.7 404.7 168.5 397.2 172.5C392 175.2 386.7 176.5 381.2 178.5C375.2 180.5 369.5 183.2 363.7 186.2C359 188.7 355 192.2 350.5 195.2C348.7 196.5 346.5 198.2 344.5 198.7C341.7 199.5 340.5 195.7 339.5 194C337.2 189.7 334.7 185.5 332 181.2C330.7 179 329 176.7 329.2 174C329.5 171.7 331 170 332.5 168.2C335.2 165 339.7 161 340.7 156.5C341.2 153.7 339.5 151.2 338.2 148.7C337 146.2 336.2 143.7 335.2 141C334 136.5 332.5 132.2 331.7 127.5C331.2 125 332.5 122.7 331.2 120.2C330 118 327 116.5 324.7 115.5C319.2 113 312.5 108 306.2 108C304 108 302 109.2 300 109.7C295 111.5 290.2 113.7 285.2 115.7C283 116.7 279.2 117 278.2 119.2C275.5 125.2 278 133.2 276.5 139.7C275.5 144.5 270.2 148 270.2 153C270.5 158 274.5 163.7 276.7 168.2C277.5 170.2 279 172.7 278.5 175C278 178 274.2 180.5 272.5 183C269.5 187 267 191.2 264.7 195.7C264 197.2 263.7 200.2 261.7 200.7C260.5 201 259.2 200 258.2 199.2C256 197.2 253.7 195.2 251.7 193.2C246 187.5 240 182.5 233 178.2C231 177 228.5 175.2 226.2 174.2C224.2 173.7 221.7 174 219.7 174C216.2 174 213 173.7 209.5 173.7C207.7 173.7 205.7 174 204 173.5C201 172.5 199 168.5 196.7 166.5C192.7 163 188.7 161.2 183.7 159.7C179.5 158.5 175.2 157.2 170.7 156.5C169.2 156 166.7 156.5 166.2 154.5C165.2 151.7 168.2 147.7 169.2 145.2C172.5 137.5 175 129.5 178 121.7C180.2 115.7 182.5 109.7 185 104C185.7 102.5 186.5 99 188 98.2C190 97.2 193.2 100 194.7 100.7C199.7 103.7 204.7 108.2 211 108.2C217.2 108.2 221.2 106.5 225.5 101.7C227 100 229.2 95.2 231.5 94.5"/>
 </g>
</svg>